solid
facet normal -1.0 -0.0 0.0
 outer loop
  vertex 0.0 55.5 14.0
  vertex 0.0 55.0 11.0
  vertex 0.0 55.0 14.0
 endloop
endfacet
facet normal -1.0 0.0 -0.0
 outer loop
  vertex 0.0 55.5 14.0
  vertex 0.0 55.5 11.0
  vertex 0.0 55.0 11.0
 endloop
endfacet
facet normal 1.0 0.0 0.0
 outer loop
  vertex 0.5 55.5 14.0
  vertex 0.5 55.0 14.0
  vertex 0.5 55.0 11.0
 endloop
endfacet
facet normal 1.0 0.0 0.0
 outer loop
  vertex 0.5 55.5 14.0
  vertex 0.5 55.0 11.0
  vertex 0.5 55.5 11.0
 endloop
endfacet
facet normal 0.0 -1.0 0.0
 outer loop
  vertex 0.5 55.0 11.0
  vertex 0.0 55.0 14.0
  vertex 0.0 55.0 11.0
 endloop
endfacet
facet normal -0.0 -1.0 -0.0
 outer loop
  vertex 0.5 55.0 14.0
  vertex 0.0 55.0 14.0
  vertex 0.5 55.0 11.0
 endloop
endfacet
facet normal 0.0 1.0 0.0
 outer loop
  vertex 0.5 55.5 11.0
  vertex 0.0 55.5 11.0
  vertex 0.0 55.5 14.0
 endloop
endfacet
facet normal 0.0 1.0 0.0
 outer loop
  vertex 0.5 55.5 14.0
  vertex 0.5 55.5 11.0
  vertex 0.0 55.5 14.0
 endloop
endfacet
facet normal 0.0 0.0 -1.0
 outer loop
  vertex 0.0 55.0 11.0
  vertex 0.0 55.5 11.0
  vertex 0.25 55.25 11.0
 endloop
endfacet
facet normal 0.0 0.0 -1.0
 outer loop
  vertex 0.5 55.0 11.0
  vertex 0.0 55.0 11.0
  vertex 0.25 55.25 11.0
 endloop
endfacet
facet normal 0.0 0.0 -1.0
 outer loop
  vertex 0.0 55.5 11.0
  vertex 0.5 55.5 11.0
  vertex 0.25 55.25 11.0
 endloop
endfacet
facet normal 0.0 -0.0 -1.0
 outer loop
  vertex 0.5 55.5 11.0
  vertex 0.5 55.0 11.0
  vertex 0.25 55.25 11.0
 endloop
endfacet
facet normal 0.0 0.0 1.0
 outer loop
  vertex 0.0 55.0 14.0
  vertex 0.25 55.25 14.0
  vertex 0.0 55.5 14.0
 endloop
endfacet
facet normal 0.0 0.0 1.0
 outer loop
  vertex 0.5 55.0 14.0
  vertex 0.25 55.25 14.0
  vertex 0.0 55.0 14.0
 endloop
endfacet
facet normal -0.0 0.0 1.0
 outer loop
  vertex 0.0 55.5 14.0
  vertex 0.25 55.25 14.0
  vertex 0.5 55.5 14.0
 endloop
endfacet
facet normal 0.0 0.0 1.0
 outer loop
  vertex 0.5 55.5 14.0
  vertex 0.25 55.25 14.0
  vertex 0.5 55.0 14.0
 endloop
endfacet
facet normal -0.21396404800036525 -0.46681975846926504 0.8580784924853869
 outer loop
  vertex 0.4652438254301262 0.09999999999999992 1.3414629525807558
  vertex 0.8275986595108519 -0.23254355036065952 1.2509036466105208
  vertex 0.7 0.1 1.4
 endloop
endfacet
facet normal -0.22832887679932723 0.3307313592720585 0.9156870054847421
 outer loop
  vertex 0.7 0.1 1.4
  vertex 0.6623514708703775 0.4343582937689129 1.2698474275188585
  vertex 0.4652438254301262 0.09999999999999992 1.3414629525807558
 endloop
endfacet
facet normal 0.4786733640400907 0.2889415896581312 0.8290865867473525
 outer loop
  vertex 1.133012701892219 0.0999999999999999 1.1500000000000008
  vertex 0.8979305677288089 0.48385590423003766 1.151948675619245
  vertex 0.7 0.1 1.4
 endloop
endfacet
facet normal 0.4906241743725169 -0.19274770578437672 0.8497859974347338
 outer loop
  vertex 0.7 0.1 1.4
  vertex 0.8275986595108519 -0.23254355036065952 1.2509036466105208
  vertex 1.133012701892219 0.0999999999999999 1.1500000000000008
 endloop
endfacet
facet normal 0.3511303314771672 0.3737214129880835 0.8585102188040193
 outer loop
  vertex 0.8979305677288089 0.48385590423003766 1.151948675619245
  vertex 0.6623514708703775 0.4343582937689129 1.2698474275188585
  vertex 0.7 0.1 1.4
 endloop
endfacet
facet normal -0.36429513140091846 -0.40361200044512235 -0.8392773143212404
 outer loop
  vertex 0.7 0.1 0.4
  vertex 0.7229949644589352 -0.27542065125662973 0.5705602236833258
  vertex 0.33475617456987367 0.09999999999999995 0.5585370474192437
 endloop
endfacet
facet normal -0.3540336696718857 0.45759934904716165 -0.815636559069217
 outer loop
  vertex 0.33475617456987367 0.09999999999999995 0.5585370474192437
  vertex 0.7377124876460457 0.5069351323506699 0.6119347880526189
  vertex 0.7 0.1 0.4
 endloop
endfacet
facet normal 0.47001906781722425 -0.34106935299571095 -0.8140969059855925
 outer loop
  vertex 1.1330127018922198 0.0999999999999999 0.6500000000000009
  vertex 0.7229949644589352 -0.27542065125662973 0.5705602236833258
  vertex 0.7 0.1 0.4
 endloop
endfacet
facet normal 0.46348416930899633 0.3751395729589213 -0.8027781297470353
 outer loop
  vertex 0.7 0.1 0.4
  vertex 0.7377124876460457 0.5069351323506699 0.6119347880526189
  vertex 1.1330127018922198 0.0999999999999999 0.6500000000000009
 endloop
endfacet
facet normal -0.43676462169905006 -0.4761208991472348 -0.7632467193688516
 outer loop
  vertex 0.33475617456987367 0.09999999999999995 0.5585370474192437
  vertex 0.7229949644589352 -0.27542065125662973 0.5705602236833258
  vertex 0.36737808728493715 -0.24369317712168867 0.7542685237096229
 endloop
endfacet
facet normal -0.38472159554319796 0.4840861387895564 -0.7859070582165009
 outer loop
  vertex 0.3673780872849367 0.4436931771216872 0.7542685237096204
  vertex 0.7377124876460457 0.5069351323506699 0.6119347880526189
  vertex 0.33475617456987367 0.09999999999999995 0.5585370474192437
 endloop
endfacet
facet normal -0.21506383310409805 -0.4677980690232766 0.8572703857644137
 outer loop
  vertex 0.43262191271506323 -0.24369317712168712 1.1457314762903796
  vertex 0.8275986595108519 -0.23254355036065952 1.2509036466105208
  vertex 0.4652438254301262 0.09999999999999992 1.3414629525807558
 endloop
endfacet
facet normal -0.41831047836951546 0.41918879012471816 0.8057897380334661
 outer loop
  vertex 0.4652438254301262 0.09999999999999992 1.3414629525807558
  vertex 0.6623514708703775 0.4343582937689129 1.2698474275188585
  vertex 0.4326219127150628 0.44369317712168865 1.145731476290377
 endloop
endfacet
facet normal 0.9613268091287002 0.27541017782651367 1.707659452294586e-15
 outer loop
  vertex 1.1330127018922198 0.0999999999999999 0.6500000000000009
  vertex 1.024137896152324 0.48003050730525587 0.8773850095013263
  vertex 1.133012701892219 0.0999999999999999 1.1500000000000008
 endloop
endfacet
facet normal 0.9740134638581741 -0.22649011506686442 1.7301954781923964e-15
 outer loop
  vertex 1.133012701892219 0.0999999999999999 1.1500000000000008
  vertex 1.050766016197707 -0.25369922965740266 0.9431283760481404
  vertex 1.1330127018922198 0.0999999999999999 0.6500000000000009
 endloop
endfacet
facet normal 0.6027710893041752 0.529719841196545 -0.5967109046613486
 outer loop
  vertex 1.1330127018922198 0.0999999999999999 0.6500000000000009
  vertex 0.7377124876460457 0.5069351323506699 0.6119347880526189
  vertex 1.024137896152324 0.48003050730525587 0.8773850095013263
 endloop
endfacet
facet normal 0.6294162327667656 -0.5773716496782613 -0.5200742101637957
 outer loop
  vertex 1.050766016197707 -0.25369922965740266 0.9431283760481404
  vertex 0.7229949644589352 -0.27542065125662973 0.5705602236833258
  vertex 1.1330127018922198 0.0999999999999999 0.6500000000000009
 endloop
endfacet
facet normal 0.7966140264553756 0.486040104937583 0.35940382475262794
 outer loop
  vertex 1.133012701892219 0.0999999999999999 1.1500000000000008
  vertex 1.024137896152324 0.48003050730525587 0.8773850095013263
  vertex 0.8979305677288089 0.48385590423003766 1.151948675619245
 endloop
endfacet
facet normal 0.6960216572744606 -0.4761711882472343 0.5374149719612675
 outer loop
  vertex 0.8275986595108519 -0.23254355036065952 1.2509036466105208
  vertex 1.050766016197707 -0.25369922965740266 0.9431283760481404
  vertex 1.133012701892219 0.0999999999999999 1.1500000000000008
 endloop
endfacet
facet normal -0.4780191422574501 -0.8747287656835196 0.07966985704291178
 outer loop
  vertex 0.36737808728493715 -0.24369317712168867 0.7542685237096229
  vertex 0.6793257411907727 -0.39924485070645965 0.9180874007467587
  vertex 0.43262191271506323 -0.24369317712168712 1.1457314762903796
 endloop
endfacet
facet normal -0.26246170452557305 -0.8980705480776907 -0.3529633753422119
 outer loop
  vertex 0.36737808728493715 -0.24369317712168867 0.7542685237096229
  vertex 0.7229949644589352 -0.27542065125662973 0.5705602236833258
  vertex 0.6793257411907727 -0.39924485070645965 0.9180874007467587
 endloop
endfacet
facet normal -0.10378653381163999 -0.8700000920327973 0.4820043519121893
 outer loop
  vertex 0.6793257411907727 -0.39924485070645965 0.9180874007467587
  vertex 0.8275986595108519 -0.23254355036065952 1.2509036466105208
  vertex 0.43262191271506323 -0.24369317712168712 1.1457314762903796
 endloop
endfacet
facet normal -0.4780191458459964 0.8747287636679884 0.07966985764099616
 outer loop
  vertex 0.4326219127150628 0.44369317712168865 1.145731476290377
  vertex 0.6793257382299415 0.5992448505635386 0.9180874013073499
  vertex 0.3673780872849367 0.4436931771216872 0.7542685237096204
 endloop
endfacet
facet normal -0.08106827370519509 0.8616779708914645 0.5009381293920718
 outer loop
  vertex 0.4326219127150628 0.44369317712168865 1.145731476290377
  vertex 0.8979305677288089 0.48385590423003766 1.151948675619245
  vertex 0.6793257382299415 0.5992448505635386 0.9180874013073499
 endloop
endfacet
facet normal -0.0867147983145798 0.9685195688001836 0.2333460704712385
 outer loop
  vertex 0.4326219127150628 0.44369317712168865 1.145731476290377
  vertex 0.6623514708703775 0.4343582937689129 1.2698474275188585
  vertex 0.8979305677288089 0.48385590423003766 1.151948675619245
 endloop
endfacet
facet normal -0.27940517926094904 0.903268788713743 -0.3256351349866356
 outer loop
  vertex 0.6793257382299415 0.5992448505635386 0.9180874013073499
  vertex 0.7377124876460457 0.5069351323506699 0.6119347880526189
  vertex 0.3673780872849367 0.4436931771216872 0.7542685237096204
 endloop
endfacet
facet normal 0.3302599620888182 -0.8946219529866163 0.3009649791512379
 outer loop
  vertex 0.6793257411907727 -0.39924485070645965 0.9180874007467587
  vertex 1.050766016197707 -0.25369922965740266 0.9431283760481404
  vertex 0.8275986595108519 -0.23254355036065952 1.2509036466105208
 endloop
endfacet
facet normal 0.3669654712038299 -0.8898973970128704 -0.2709593433227005
 outer loop
  vertex 0.6793257411907727 -0.39924485070645965 0.9180874007467587
  vertex 0.7229949644589352 -0.27542065125662973 0.5705602236833258
  vertex 1.050766016197707 -0.25369922965740266 0.9431283760481404
 endloop
endfacet
facet normal 0.338413075813312 0.9301303904449105 0.14259749959018114
 outer loop
  vertex 0.8979305677288089 0.48385590423003766 1.151948675619245
  vertex 1.024137896152324 0.48003050730525587 0.8773850095013263
  vertex 0.6793257382299415 0.5992448505635386 0.9180874013073499
 endloop
endfacet
facet normal 0.29475298709575626 0.9289752513419727 -0.22388760348051367
 outer loop
  vertex 1.024137896152324 0.48003050730525587 0.8773850095013263
  vertex 0.7377124876460457 0.5069351323506699 0.6119347880526189
  vertex 0.6793257382299415 0.5992448505635386 0.9180874013073499
 endloop
endfacet
facet normal 0.23439268067458183 -0.24789169439206415 -0.9400052016332755
 outer loop
  vertex 0.33475617456987367 0.09999999999999995 0.5585370474192437
  vertex 0.10098005084369656 -0.14736510975897937 0.5654778003665729
  vertex 0.10000000000000003 0.1 0.5
 endloop
endfacet
facet normal 0.2357876655908105 0.22415511676544575 -0.9455996300671367
 outer loop
  vertex 0.10000000000000003 0.1 0.5
  vertex 0.23429183646250556 0.36132721683456237 0.5954338269194651
  vertex 0.33475617456987367 0.09999999999999995 0.5585370474192437
 endloop
endfacet
facet normal 0.4193203564811464 -0.4188841784659822 -0.8054231705578153
 outer loop
  vertex 0.36737808728493715 -0.24369317712168867 0.7542685237096229
  vertex 0.10098005084369656 -0.14736510975897937 0.5654778003665729
  vertex 0.33475617456987367 0.09999999999999995 0.5585370474192437
 endloop
endfacet
facet normal 0.6266117930478011 0.33991014895691724 -0.7012979049230834
 outer loop
  vertex 0.33475617456987367 0.09999999999999995 0.5585370474192437
  vertex 0.23429183646250556 0.36132721683456237 0.5954338269194651
  vertex 0.3673780872849367 0.4436931771216872 0.7542685237096204
 endloop
endfacet
facet normal 0.39341234664914815 -0.15408001922379858 0.9063586890299029
 outer loop
  vertex 0.10000000000000003 0.1 1.5
  vertex 0.16925569258655815 -0.14999808459439487 1.4274395942627331
  vertex 0.4652438254301262 0.09999999999999992 1.3414629525807558
 endloop
endfacet
facet normal 0.38554602252185577 0.24978224592310427 0.8882359450839549
 outer loop
  vertex 0.4652438254301262 0.09999999999999992 1.3414629525807558
  vertex 0.2483837070563371 0.4333457262062621 1.341852164393088
  vertex 0.10000000000000003 0.1 1.5
 endloop
endfacet
facet normal 0.5753860268382324 -0.4453032369615131 0.6860291154688053
 outer loop
  vertex 0.4652438254301262 0.09999999999999992 1.3414629525807558
  vertex 0.16925569258655815 -0.14999808459439487 1.4274395942627331
  vertex 0.43262191271506323 -0.24369317712168712 1.1457314762903796
 endloop
endfacet
facet normal 0.6495984836602993 0.4218618002115588 0.6324985624873014
 outer loop
  vertex 0.4326219127150628 0.44369317712168865 1.145731476290377
  vertex 0.2483837070563371 0.4333457262062621 1.341852164393088
  vertex 0.4652438254301262 0.09999999999999992 1.3414629525807558
 endloop
endfacet
facet normal -0.297874248058741 -0.34127577730335573 0.8915165596720175
 outer loop
  vertex 0.10000000000000003 0.1 1.5
  vertex -0.21938514368655507 0.07553046837523997 1.3839197468409035
  vertex 0.16925569258655815 -0.14999808459439487 1.4274395942627331
 endloop
endfacet
facet normal -0.3266991764976216 0.5198867184325084 0.7892942721654919
 outer loop
  vertex 0.2483837070563371 0.4333457262062621 1.341852164393088
  vertex -0.21938514368655507 0.07553046837523997 1.3839197468409035
  vertex 0.10000000000000003 0.1 1.5
 endloop
endfacet
facet normal -0.2711089416403246 -0.24730847510295687 -0.9302357012633482
 outer loop
  vertex 0.10098005084369656 -0.14736510975897937 0.5654778003665729
  vertex -0.19537978607792225 0.0477697937274692 0.5999715166025177
  vertex 0.10000000000000003 0.1 0.5
 endloop
endfacet
facet normal 0.08311573013112042 0.30388085770462614 -0.949077552007986
 outer loop
  vertex 0.10000000000000003 0.1 0.5
  vertex 0.005836258340365844 0.3263572309984352 0.5642298843066694
  vertex 0.23429183646250556 0.36132721683456237 0.5954338269194651
 endloop
endfacet
facet normal -0.337744341291353 0.12424311922838191 -0.9330018259628821
 outer loop
  vertex -0.19537978607792225 0.0477697937274692 0.5999715166025177
  vertex 0.005836258340365844 0.3263572309984352 0.5642298843066694
  vertex 0.10000000000000003 0.1 0.5
 endloop
endfacet
facet normal 0.485837245722813 -0.8702905056922955 -0.080972874287132
 outer loop
  vertex 0.43262191271506323 -0.24369317712168712 1.1457314762903796
  vertex 0.12679815265559863 -0.3987816996553747 0.9776689654708344
  vertex 0.36737808728493715 -0.24369317712168867 0.7542685237096229
 endloop
endfacet
facet normal 0.06287612061097174 -0.8502771705249845 -0.5225660979636365
 outer loop
  vertex 0.36737808728493715 -0.24369317712168867 0.7542685237096229
  vertex 0.12679815265559863 -0.3987816996553747 0.9776689654708344
  vertex 0.10098005084369656 -0.14736510975897937 0.5654778003665729
 endloop
endfacet
facet normal 0.18579624026709937 -0.8671426210896719 0.462107597635382
 outer loop
  vertex 0.16925569258655815 -0.14999808459439487 1.4274395942627331
  vertex 0.12679815265559863 -0.3987816996553747 0.9776689654708344
  vertex 0.43262191271506323 -0.24369317712168712 1.1457314762903796
 endloop
endfacet
facet normal 0.45751819526658194 0.8859247011048892 -0.07625303254443358
 outer loop
  vertex 0.3673780872849367 0.4436931771216872 0.7542685237096204
  vertex 0.12034509957365228 0.5968845831676882 1.0518824434044016
  vertex 0.4326219127150628 0.44369317712168865 1.145731476290377
 endloop
endfacet
facet normal 0.32499783571271457 0.8779153201634107 0.3516263605084629
 outer loop
  vertex 0.4326219127150628 0.44369317712168865 1.145731476290377
  vertex 0.12034509957365228 0.5968845831676882 1.0518824434044016
  vertex 0.2483837070563371 0.4333457262062621 1.341852164393088
 endloop
endfacet
facet normal 0.18669747019417543 0.7994430422726253 -0.5709946381403109
 outer loop
  vertex 0.23429183646250556 0.36132721683456237 0.5954338269194651
  vertex 0.025037689564996995 0.5442025512714236 0.7830558932392849
  vertex 0.3673780872849367 0.4436931771216872 0.7542685237096204
 endloop
endfacet
facet normal 0.2501372164774822 0.9295554860781022 -0.2708467670750386
 outer loop
  vertex 0.3673780872849367 0.4436931771216872 0.7542685237096204
  vertex 0.025037689564996995 0.5442025512714236 0.7830558932392849
  vertex 0.12034509957365228 0.5968845831676882 1.0518824434044016
 endloop
endfacet
facet normal -0.1314634586621268 -0.8499519814327429 -0.5101950492656174
 outer loop
  vertex 0.12679815265559863 -0.3987816996553747 0.9776689654708344
  vertex -0.20270550575964616 -0.2620144251751405 0.8347277012082502
  vertex 0.10098005084369656 -0.14736510975897937 0.5654778003665729
 endloop
endfacet
facet normal -0.437300047222306 -0.5365716027312437 -0.7217060231436296
 outer loop
  vertex -0.20270550575964616 -0.2620144251751405 0.8347277012082502
  vertex -0.19537978607792225 0.0477697937274692 0.5999715166025177
  vertex 0.10098005084369656 -0.14736510975897937 0.5654778003665729
 endloop
endfacet
facet normal -0.01227183603082825 0.7091778677742587 -0.7049227999572636
 outer loop
  vertex 0.005836258340365844 0.3263572309984352 0.5642298843066694
  vertex 0.025037689564996995 0.5442025512714236 0.7830558932392849
  vertex 0.23429183646250556 0.36132721683456237 0.5954338269194651
 endloop
endfacet
facet normal -0.05551902528208845 -0.8714765533959845 0.48728457261930896
 outer loop
  vertex 0.16925569258655815 -0.14999808459439487 1.4274395942627331
  vertex -0.19036843803480638 -0.2617822939483603 1.1865468894907902
  vertex 0.12679815265559863 -0.3987816996553747 0.9776689654708344
 endloop
endfacet
facet normal -0.37365511987118905 -0.492184304634356 0.7862165488373054
 outer loop
  vertex 0.16925569258655815 -0.14999808459439487 1.4274395942627331
  vertex -0.21938514368655507 0.07553046837523997 1.3839197468409035
  vertex -0.19036843803480638 -0.2617822939483603 1.1865468894907902
 endloop
endfacet
facet normal -0.07757580385787227 0.8533512431445959 0.5155323951793697
 outer loop
  vertex 0.12034509957365228 0.5968845831676882 1.0518824434044016
  vertex -0.14578114447947632 0.43880920297555503 1.2734958006943213
  vertex 0.2483837070563371 0.4333457262062621 1.341852164393088
 endloop
endfacet
facet normal -0.15783860370326974 0.31631764511112676 0.9354304477471073
 outer loop
  vertex -0.14578114447947632 0.43880920297555503 1.2734958006943213
  vertex -0.21938514368655507 0.07553046837523997 1.3839197468409035
  vertex 0.2483837070563371 0.4333457262062621 1.341852164393088
 endloop
endfacet
facet normal -0.3885812464716686 -0.9213045133526665 0.014234063598670675
 outer loop
  vertex 0.12679815265559863 -0.3987816996553747 0.9776689654708344
  vertex -0.19036843803480638 -0.2617822939483603 1.1865468894907902
  vertex -0.20270550575964616 -0.2620144251751405 0.8347277012082502
 endloop
endfacet
facet normal -0.3007209013241 0.9093443217268615 0.2875062504536816
 outer loop
  vertex 0.12034509957365228 0.5968845831676882 1.0518824434044016
  vertex -0.18008723359825116 0.5141865622843194 0.999204262369669
  vertex -0.14578114447947632 0.43880920297555503 1.2734958006943213
 endloop
endfacet
facet normal -0.2475185846086225 0.9635957415707723 -0.10108311975803608
 outer loop
  vertex 0.025037689564996995 0.5442025512714236 0.7830558932392849
  vertex -0.18008723359825116 0.5141865622843194 0.999204262369669
  vertex 0.12034509957365228 0.5968845831676882 1.0518824434044016
 endloop
endfacet
facet normal -0.7912308654741474 -0.35734543630762594 -0.4962438479932462
 outer loop
  vertex -0.20270550575964616 -0.2620144251751405 0.8347277012082502
  vertex -0.38579178978325435 -0.001407253859434368 0.9389843803287176
  vertex -0.19537978607792225 0.0477697937274692 0.5999715166025177
 endloop
endfacet
facet normal -0.812444235955694 -0.5823235075446144 0.02887379475070701
 outer loop
  vertex -0.20270550575964616 -0.2620144251751405 0.8347277012082502
  vertex -0.19036843803480638 -0.2617822939483603 1.1865468894907902
  vertex -0.38579178978325435 -0.001407253859434368 0.9389843803287176
 endloop
endfacet
facet normal -0.7396523080002146 0.3284150504642691 0.5874163922623431
 outer loop
  vertex -0.14578114447947632 0.43880920297555503 1.2734958006943213
  vertex -0.36332760259717 0.2591305076911385 1.1000250678256178
  vertex -0.21938514368655507 0.07553046837523997 1.3839197468409035
 endloop
endfacet
facet normal -0.7306872265327199 0.6294497167021001 0.26436571473163367
 outer loop
  vertex -0.14578114447947632 0.43880920297555503 1.2734958006943213
  vertex -0.18008723359825116 0.5141865622843194 0.999204262369669
  vertex -0.36332760259717 0.2591305076911385 1.1000250678256178
 endloop
endfacet
facet normal -0.8739670048363355 0.05621452866878219 -0.4827231103064689
 outer loop
  vertex -0.38579178978325435 -0.001407253859434368 0.9389843803287176
  vertex -0.2705515660198101 0.34518358773203134 0.7707042407127521
  vertex -0.19537978607792225 0.0477697937274692 0.5999715166025177
 endloop
endfacet
facet normal -0.5569942199789036 0.30309903720030484 -0.7732324440673329
 outer loop
  vertex -0.2705515660198101 0.34518358773203134 0.7707042407127521
  vertex 0.005836258340365844 0.3263572309984352 0.5642298843066694
  vertex -0.19537978607792225 0.0477697937274692 0.5999715166025177
 endloop
endfacet
facet normal -0.8400558565266772 -0.5326485225749704 0.10291603040309961
 outer loop
  vertex -0.19036843803480638 -0.2617822939483603 1.1865468894907902
  vertex -0.3467639239346241 -0.01377542545213499 1.1935384944493552
  vertex -0.38579178978325435 -0.001407253859434368 0.9389843803287176
 endloop
endfacet
facet normal -0.9534457847209528 0.21371655239757711 -0.2127589500564905
 outer loop
  vertex -0.38579178978325435 -0.001407253859434368 0.9389843803287176
  vertex -0.36332760259717 0.2591305076911385 1.1000250678256178
  vertex -0.2705515660198101 0.34518358773203134 0.7707042407127521
 endloop
endfacet
facet normal -0.9884763173828025 -0.008200408286641779 0.15115331050713215
 outer loop
  vertex -0.38579178978325435 -0.001407253859434368 0.9389843803287176
  vertex -0.3467639239346241 -0.01377542545213499 1.1935384944493552
  vertex -0.36332760259717 0.2591305076911385 1.1000250678256178
 endloop
endfacet
facet normal -0.6469386030393345 -0.4257989815825437 0.6325864930432701
 outer loop
  vertex -0.21938514368655507 0.07553046837523997 1.3839197468409035
  vertex -0.3467639239346241 -0.01377542545213499 1.1935384944493552
  vertex -0.19036843803480638 -0.2617822939483603 1.1865468894907902
 endloop
endfacet
facet normal -0.4193975195341538 0.6614882332669064 -0.6217226374019414
 outer loop
  vertex -0.2705515660198101 0.34518358773203134 0.7707042407127521
  vertex 0.025037689564996995 0.5442025512714236 0.7830558932392849
  vertex 0.005836258340365844 0.3263572309984352 0.5642298843066694
 endloop
endfacet
facet normal -0.8249785684626236 0.558509710145337 -0.0864711816198439
 outer loop
  vertex -0.36332760259717 0.2591305076911385 1.1000250678256178
  vertex -0.18008723359825116 0.5141865622843194 0.999204262369669
  vertex -0.2705515660198101 0.34518358773203134 0.7707042407127521
 endloop
endfacet
facet normal -0.5072776551515208 0.7766090098889742 -0.37356100752519955
 outer loop
  vertex -0.2705515660198101 0.34518358773203134 0.7707042407127521
  vertex -0.18008723359825116 0.5141865622843194 0.999204262369669
  vertex 0.025037689564996995 0.5442025512714236 0.7830558932392849
 endloop
endfacet
facet normal -0.8505698327890809 0.12352484307901304 0.5111482883581437
 outer loop
  vertex -0.36332760259717 0.2591305076911385 1.1000250678256178
  vertex -0.3467639239346241 -0.01377542545213499 1.1935384944493552
  vertex -0.21938514368655507 0.07553046837523997 1.3839197468409035
 endloop
endfacet
endsolid
